<svg width="358" height="114" viewBox="0 0 358 114" fill="none" xmlns="http://www.w3.org/2000/svg">
<path d="M1.31199 92.544C0.88532 92.544 0.543984 92.416 0.287984 92.16C0.0319845 91.8187 -0.0533305 91.4347 0.0320029 91.008L10.656 4.48C10.7413 4.05334 10.912 3.712 11.168 3.456C11.5093 3.11467 11.8933 2.944 12.3199 2.944H23.7119C24.1386 2.944 24.4799 3.11467 24.7359 3.456C24.9919 3.712 25.0772 4.05334 24.9919 4.48L14.3679 91.008C14.2826 91.4347 14.0693 91.8187 13.7279 92.16C13.4719 92.416 13.1306 92.544 12.7039 92.544H1.31199Z" fill="#0EA5E9"/>
<path d="M41.8059 18.176C39.4165 18.176 37.4966 17.4507 36.0459 16C34.6806 14.5493 33.9979 12.672 33.9979 10.368C33.9979 7.38134 34.9365 4.90667 36.8139 2.944C38.7765 0.981333 41.1659 0 43.9819 0C46.2859 0 48.1205 0.725334 49.4859 2.176C50.9365 3.54133 51.6619 5.33333 51.6619 7.552C51.6619 10.5387 50.6805 13.056 48.7179 15.104C46.8405 17.152 44.5365 18.176 41.8059 18.176ZM27.0859 92.544C26.6592 92.544 26.3179 92.416 26.0619 92.16C25.8059 91.8187 25.7206 91.4347 25.8059 91.008L33.3579 28.672C33.4432 28.2453 33.6139 27.904 33.8699 27.648C34.2112 27.3067 34.5952 27.136 35.0219 27.136H46.5419C46.9685 27.136 47.3099 27.3067 47.5659 27.648C47.8219 27.904 47.9072 28.2453 47.8219 28.672L40.1418 91.008C40.0565 91.4347 39.8432 91.8187 39.5019 92.16C39.2459 92.416 38.9045 92.544 38.4778 92.544H27.0859Z" fill="#0EA5E9"/>
<path d="M86.9909 26.112C91.6842 26.112 95.2255 27.52 97.6148 30.336C100.004 33.152 101.199 37.2053 101.199 42.496C101.199 44.032 101.071 45.696 100.815 47.488L95.4389 91.008C95.3535 91.4347 95.1402 91.8187 94.7988 92.16C94.5428 92.416 94.2015 92.544 93.7749 92.544H82.3829C81.9562 92.544 81.6149 92.416 81.3588 92.16C81.1028 91.8187 81.0175 91.4347 81.1029 91.008L86.2229 48.64C86.3082 48.128 86.3509 47.36 86.3509 46.336C86.3509 43.9467 85.7962 42.112 84.6869 40.832C83.6629 39.552 82.1695 38.912 80.2068 38.912C77.8175 38.912 75.8548 39.808 74.3188 41.6C72.7828 43.3067 71.8015 45.7813 71.3748 49.024L66.2549 91.008C66.1695 91.4347 65.9562 91.8187 65.6149 92.16C65.3589 92.416 65.0175 92.544 64.5909 92.544H53.1988C52.7722 92.544 52.4309 92.416 52.1749 92.16C51.9189 91.8187 51.8335 91.4347 51.9188 91.008L59.4709 28.672C59.5562 28.2453 59.7695 27.904 60.1109 27.648C60.4522 27.3067 60.8362 27.136 61.2628 27.136H72.6548C73.0815 27.136 73.4229 27.3067 73.6789 27.648C73.9349 27.904 74.0202 28.2453 73.9349 28.672L73.6789 31.232C73.5935 31.488 73.6362 31.6587 73.8068 31.744C74.0628 31.744 74.3189 31.5733 74.5749 31.232C77.7322 27.8187 81.8709 26.112 86.9909 26.112Z" fill="#0EA5E9"/>
<path d="M256.441 28.672C256.441 28.2453 256.612 27.904 256.953 27.648C257.294 27.3067 257.678 27.136 258.105 27.136H269.497C269.924 27.136 270.265 27.3067 270.521 27.648C270.777 27.904 270.862 28.2453 270.777 28.672L263.097 91.008C263.012 91.4347 262.798 91.8187 262.457 92.16C262.201 92.416 261.86 92.544 261.433 92.544H250.041C249.614 92.544 249.273 92.416 249.017 92.16C248.761 91.8187 248.676 91.4347 248.761 91.008L249.273 87.168C249.273 86.8267 249.188 86.656 249.017 86.656C248.846 86.656 248.676 86.784 248.505 87.04C245.262 91.392 240.996 93.568 235.705 93.568C230.926 93.568 227.3 92.16 224.825 89.344C222.436 86.4427 221.241 82.432 221.241 77.312C221.241 75.264 221.326 73.728 221.497 72.704L224.697 46.848C225.55 40.2773 227.598 35.2 230.841 31.616C234.169 27.9467 238.564 26.112 244.025 26.112C246.329 26.112 248.462 26.624 250.425 27.648C252.473 28.672 254.052 30.336 255.161 32.64C255.332 32.896 255.46 33.024 255.545 33.024C255.716 33.024 255.844 32.8533 255.929 32.512L256.441 28.672ZM242.489 80.768C244.708 80.768 246.585 79.9573 248.121 78.336C249.742 76.6293 250.724 74.4107 251.065 71.68L254.009 48C254.094 47.6587 254.137 47.104 254.137 46.336C254.137 44.1173 253.54 42.3253 252.345 40.96C251.236 39.5947 249.7 38.912 247.737 38.912C245.433 38.912 243.47 39.7653 241.849 41.472C240.313 43.0933 239.374 45.2693 239.033 48L236.089 71.68C236.004 72.0213 235.961 72.5333 235.961 73.216C235.961 75.52 236.558 77.3547 237.753 78.72C238.948 80.0853 240.526 80.768 242.489 80.768Z" fill="#0EA5E9"/>
<path d="M306.875 36.096C306.79 36.5227 306.577 36.9067 306.235 37.248C305.979 37.504 305.638 37.632 305.211 37.632H297.531C297.19 37.632 296.934 37.8453 296.763 38.272L292.667 71.808C292.582 72.4053 292.539 73.1733 292.539 74.112C292.539 76.16 293.008 77.6107 293.947 78.464C294.886 79.3173 296.294 79.7013 298.171 79.616H299.067C299.494 79.616 299.835 79.7867 300.091 80.128C300.347 80.384 300.433 80.7253 300.347 81.152L299.195 91.008C299.11 91.4347 298.897 91.8187 298.555 92.16C298.214 92.416 297.83 92.544 297.403 92.544H293.179C288.144 92.544 284.305 91.7333 281.659 90.112C279.099 88.4053 277.819 85.2907 277.819 80.768C277.819 80.1707 277.904 79.0187 278.075 77.312L282.939 38.272C282.939 37.8453 282.726 37.632 282.299 37.632H277.947C277.52 37.632 277.179 37.504 276.923 37.248C276.667 36.9067 276.582 36.5227 276.667 36.096L277.563 28.672C277.648 28.2453 277.819 27.904 278.075 27.648C278.416 27.3067 278.8 27.136 279.227 27.136H283.579C284.091 27.136 284.347 26.9227 284.347 26.496L286.011 12.416C286.097 11.9893 286.31 11.648 286.651 11.392C286.993 11.0507 287.376 10.88 287.803 10.88H298.683C299.11 10.88 299.451 11.0507 299.707 11.392C299.963 11.648 300.048 11.9893 299.963 12.416L298.299 26.496C298.129 26.9227 298.299 27.136 298.811 27.136H306.491C306.918 27.136 307.259 27.3067 307.515 27.648C307.771 27.904 307.857 28.2453 307.771 28.672L306.875 36.096Z" fill="#0EA5E9"/>
<path d="M343.792 26.112C348.486 26.112 352.027 27.52 354.416 30.336C356.806 33.152 358 37.2053 358 42.496C358 44.032 357.872 45.696 357.616 47.488L352.24 91.008C352.155 91.4347 351.942 91.8187 351.6 92.16C351.344 92.416 351.003 92.544 350.576 92.544H339.184C338.758 92.544 338.416 92.416 338.16 92.16C337.904 91.8187 337.819 91.4347 337.904 91.008L343.024 48.64C343.11 48.128 343.152 47.36 343.152 46.336C343.152 43.9467 342.598 42.112 341.488 40.832C340.464 39.552 338.971 38.912 337.008 38.912C334.619 38.912 332.656 39.808 331.12 41.6C329.584 43.3067 328.603 45.7813 328.176 49.024L323.056 91.008C322.971 91.4347 322.758 91.8187 322.416 92.16C322.16 92.416 321.819 92.544 321.392 92.544H310C309.574 92.544 309.232 92.416 308.976 92.16C308.72 91.8187 308.635 91.4347 308.72 91.008L319.344 4.48C319.43 4.05334 319.6 3.712 319.856 3.456C320.198 3.11467 320.582 2.944 321.008 2.944H332.4C332.827 2.944 333.168 3.11467 333.424 3.456C333.68 3.712 333.766 4.05334 333.68 4.48L330.48 31.232C330.395 31.488 330.438 31.6587 330.608 31.744C330.864 31.744 331.12 31.5733 331.376 31.232C334.534 27.8187 338.672 26.112 343.792 26.112Z" fill="#0EA5E9"/>
<path d="M102.575 92.544C102.063 92.544 101.722 92.3733 101.551 92.032C101.381 91.6907 101.381 91.264 101.551 90.752L137.647 4.224C137.903 3.37067 138.458 2.944 139.311 2.944H150.831C151.258 2.944 151.557 3.11466 151.727 3.45599C151.983 3.79733 152.026 4.22399 151.855 4.73599L115.759 91.264C115.333 92.1173 114.735 92.544 113.967 92.544H102.575Z" fill="#EAB308"/>
<path d="M143.693 113.736C143.181 113.736 142.84 113.565 142.669 113.224C142.499 112.883 142.499 112.456 142.669 111.944L178.765 25.416C179.021 24.5627 179.576 24.136 180.429 24.136H191.949C192.376 24.136 192.675 24.3066 192.845 24.648C193.101 24.9893 193.144 25.416 192.973 25.928L156.877 112.456C156.451 113.309 155.853 113.736 155.085 113.736H143.693Z" fill="#EAB308"/>
<path d="M158.676 25.2954C159.103 24.5225 159.743 24.136 160.596 24.136H172.5C173.183 24.136 173.524 24.4742 173.524 25.1505C173.5 25.694 173.5 25.9023 173.14 26.3098C172.78 26.7174 148.756 55.8523 148.5 56.2636C148.244 56.6749 148.244 56.8297 148.244 57.278L148.5 90.5151V91.0948C148.5 92.0609 148.031 92.544 147.092 92.544H137.325C136.453 92.544 135.917 92.1173 135.917 91.0948C135.917 91.0948 135.5 56.2636 135.5 55.6975C135.5 55.1314 135.5 54.5653 135.917 53.433C136.195 52.3433 137.237 51.0443 137.237 51.0443L158.676 25.2954Z" fill="#8899A6"/>
<path d="M203.144 26.112C208.093 26.112 211.848 27.6053 214.408 30.592C217.053 33.4933 218.376 37.504 218.376 42.624C218.376 43.5627 218.291 44.9707 218.12 46.848C218.12 46.848 216.044 60.6192 212.548 68.704C209.893 74.8449 209.246 79.4612 203.912 83.5C199.211 87.0594 194.519 87.8821 189.5 88C186.159 88.0785 181 87 181 87C181 87 174.365 85.1213 173 83.5L177 74C180.5 76 182.986 76.8087 187 76.5C190.078 76.2632 192.11 75.9545 194.5 74C196.736 72.1717 197.025 70.251 198.34 67.68C201.972 60.581 203.784 48 203.784 48L203.912 46.464C203.912 44.16 203.28 41.8653 202 40.5C200.805 39.0493 199.5 37.5 196.5 37.5C194.5 37.5 194.449 37.592 192 38L195.5 29.5C199 26.5 200.599 26.112 203.144 26.112Z" fill="#0EA5E9"/>
</svg>
